<svg width="16" height="24" viewBox="0 0 16 24" fill="none" xmlns="http://www.w3.org/2000/svg">
<path fill-rule="evenodd" clip-rule="evenodd" d="M8 2C11.3137 2 14 4.68629 14 8V16C14 19.3137 11.3137 22 8 22C4.68629 22 2 19.3137 2 16V8C2 4.68629 4.68629 2 8 2ZM0 8C0 3.58172 3.58172 0 8 0C12.4183 0 16 3.58172 16 8V16C16 20.4183 12.4183 24 8 24C3.58172 24 0 20.4183 0 16V8ZM6 8C6 6.89543 6.89543 6 8 6C9.10457 6 10 6.89543 10 8V12C10 13.1046 9.10457 14 8 14C6.89543 14 6 13.1046 6 12V8Z" fill="#EAD5CC"/>
</svg>
